<svg width="21" height="21" viewBox="0 0 21 21" fill="none" xmlns="http://www.w3.org/2000/svg">
<path d="M0.80935 10.1697C0.808843 11.8345 1.257 13.4601 2.10926 14.8929L0.727814 19.7886L5.88965 18.4749C7.31179 19.2273 8.91296 19.6243 10.5425 19.6248H10.5469C15.9131 19.6248 20.2814 15.3864 20.2836 10.1771C20.2847 7.65269 19.2728 5.27907 17.4343 3.49331C15.5961 1.70756 13.1513 0.723608 10.5465 0.722483C5.17961 0.722483 0.811527 4.96054 0.80935 10.1697" fill="url(#paint0_linear_7_425)"/>
<path d="M0.461706 10.1664C0.461053 11.8913 0.925391 13.575 1.80797 15.0592L0.377014 20.1303L5.72401 18.7695C7.19718 19.5493 8.85584 19.9603 10.5438 19.9609H10.5482C16.107 19.9609 20.6322 15.5701 20.6345 10.1744C20.6355 7.55923 19.5873 5.10037 17.683 3.25055C15.7786 1.40079 13.2462 0.381638 10.5482 0.380442C4.98844 0.380442 0.463919 4.77051 0.46167 10.1664H0.461706ZM3.64588 14.8036L3.44628 14.496C2.60705 13.2008 2.164 11.704 2.16473 10.1671C2.1665 5.68215 5.92709 2.03344 10.5514 2.03344C12.7907 2.03432 14.8954 2.8815 16.4784 4.41897C18.0612 5.95632 18.9322 8.00012 18.9315 10.1737C18.9296 14.6588 15.1688 18.308 10.5482 18.308H10.545C9.04039 18.3073 7.56489 17.9152 6.27801 17.174L5.97174 16.9978L2.79874 17.8052L3.64588 14.8036Z" fill="url(#paint1_linear_7_425)"/>
<path fill-rule="evenodd" clip-rule="evenodd" d="M8.02728 6.07538C7.83849 5.66808 7.63976 5.65987 7.46015 5.65273C7.31325 5.64664 7.14507 5.64702 6.97717 5.64702C6.80916 5.64702 6.53608 5.70828 6.30518 5.95305C6.07414 6.19782 5.423 6.78953 5.423 7.99301C5.423 9.19664 6.32618 10.3595 6.45208 10.5228C6.57808 10.686 8.19561 13.2345 10.7572 14.215C12.8861 15.0299 13.3194 14.8678 13.7814 14.827C14.2435 14.7862 15.2725 14.2354 15.4825 13.6642C15.6926 13.0931 15.6926 12.6036 15.6296 12.5013C15.5666 12.3993 15.3985 12.3382 15.1465 12.2158C14.8944 12.0935 13.6554 11.5016 13.4244 11.4201C13.1933 11.3386 13.0253 11.2978 12.8573 11.5427C12.6892 11.7874 12.2066 12.3382 12.0595 12.5013C11.9125 12.6648 11.7654 12.6851 11.5134 12.5628C11.2613 12.4401 10.4496 12.1821 9.4867 11.3488C8.7375 10.7005 8.23174 9.8998 8.08462 9.65492C7.93762 9.41025 8.06892 9.27775 8.19532 9.1558C8.30849 9.04621 8.4474 8.8703 8.57341 8.72744C8.69916 8.58462 8.7412 8.48267 8.8252 8.31957C8.9092 8.15622 8.8672 8.01336 8.8042 7.89106C8.7412 7.76873 8.2514 6.55902 8.02728 6.07538Z" fill="white"/>
<defs>
<linearGradient id="paint0_linear_7_425" x1="10.5057" y1="19.7886" x2="10.5057" y2="0.722465" gradientUnits="userSpaceOnUse">
<stop stop-color="#20B038"/>
<stop offset="1" stop-color="#60D66A"/>
</linearGradient>
<linearGradient id="paint1_linear_7_425" x1="10.5058" y1="20.1304" x2="10.5058" y2="0.380453" gradientUnits="userSpaceOnUse">
<stop stop-color="#F9F9F9"/>
<stop offset="1" stop-color="white"/>
</linearGradient>
</defs>
</svg>
