<svg width="132" height="128" viewBox="0 0 132 128" fill="none" xmlns="http://www.w3.org/2000/svg">
<circle cx="66" cy="58.9032" r="44.9032" fill="#EAF9FF"/>
<circle cx="66" cy="58.9032" r="35.0968" fill="#C7DDF1"/>
<path d="M64.6851 103.171C60.5624 107.385 54.8124 110 48.4516 110C40.8593 110 34.1372 106.274 30.0138 100.551C27.9784 106.067 22.6743 110 16.4516 110C8.47021 110 2 103.53 2 95.5484C2 87.567 8.47021 81.0968 16.4516 81.0968C20.063 81.0968 23.3651 82.4215 25.8983 84.6115C27.2238 73.3318 36.8157 64.5806 48.4516 64.5806C56.2914 64.5806 63.2034 68.5533 67.2843 74.5953C70.6822 71.8809 74.9903 70.2581 79.6774 70.2581C88.3259 70.2581 95.6839 75.7831 98.4144 83.496C100.496 82.2981 102.91 81.6129 105.484 81.6129C113.04 81.6129 119.218 87.518 119.653 94.9654C120.467 94.6745 121.344 94.5161 122.258 94.5161C126.534 94.5161 130 97.9823 130 102.258C130 106.534 126.534 110 122.258 110C119.309 110 116.745 108.351 115.438 105.925C112.876 108.445 109.362 110 105.484 110C100.7 110 96.4697 107.634 93.8983 104.008C90.2897 107.705 85.2516 110 79.6774 110C73.6939 110 68.3281 107.355 64.6851 103.171Z" fill="white"/>
<path d="M2 95.5484C2 87.567 8.47021 81.0968 16.4516 81.0968C20.063 81.0968 23.3651 82.4215 25.8983 84.6115C27.2238 73.3318 36.8157 64.5806 48.4516 64.5806C56.2914 64.5806 63.2034 68.5533 67.2843 74.5953C70.6822 71.8809 74.9903 70.2581 79.6774 70.2581C88.3259 70.2581 95.6839 75.7831 98.4144 83.496C100.496 82.2981 102.91 81.6129 105.484 81.6129C113.04 81.6129 119.218 87.518 119.653 94.9654C120.467 94.6745 121.344 94.5161 122.258 94.5161C126.534 94.5161 130 97.9823 130 102.258" stroke="#184680" stroke-width="2.06618" stroke-linecap="round"/>
<path d="M88.7929 101.917C88.9944 102.118 89.3212 102.118 89.5228 101.917L92.1714 99.2682C92.1806 99.259 92.1947 99.2348 92.2107 99.2038C92.2885 99.0537 92.3226 98.8822 92.3226 98.7131L92.3226 36.7097L40.1935 36.7097L40.1935 98.4551L40.1935 98.7131C40.1935 98.9712 40.3129 99.2355 40.3456 99.2682L42.9942 101.917C43.1958 102.118 43.5226 102.118 43.7241 101.917L46.2216 99.4194L48.7191 101.917C48.9206 102.118 49.2474 102.118 49.449 101.917L51.9464 99.4194L54.4439 101.917C54.6454 102.118 54.9722 102.118 55.1738 101.917L57.6713 99.4194L60.1687 101.917C60.3703 102.118 60.6971 102.118 60.8986 101.917L63.3961 99.4194L65.8936 101.917C66.0951 102.118 66.4219 102.118 66.6235 101.917L69.1209 99.4194L71.6184 101.917C71.8199 102.118 72.1467 102.118 72.3483 101.917L74.8457 99.4194L77.3432 101.917C77.5448 102.118 77.8716 102.118 78.0731 101.917L80.5706 99.4194L83.068 101.917C83.2696 102.118 83.5964 102.118 83.7979 101.917L86.2954 99.4194L88.7929 101.917Z" fill="#E3E7F7" stroke="#0C2B42" stroke-width="1.54963"/>
<path fill-rule="evenodd" clip-rule="evenodd" d="M59.2903 66.6452C60.4305 66.6452 61.3548 65.7208 61.3548 64.5806C61.3548 63.4404 60.4305 62.5161 59.2903 62.5161C58.1501 62.5161 57.2258 63.4404 57.2258 64.5806C57.2258 65.7208 58.1501 66.6452 59.2903 66.6452ZM73.2258 66.6452C74.366 66.6452 75.2903 65.7208 75.2903 64.5806C75.2903 63.4404 74.366 62.5161 73.2258 62.5161C72.0856 62.5161 71.1613 63.4404 71.1613 64.5806C71.1613 65.7208 72.0856 66.6452 73.2258 66.6452Z" fill="#0C2B42"/>
<path d="M74.7742 77.8421C72.9138 75.1322 69.7935 73.3548 66.2581 73.3548C62.7227 73.3548 59.6024 75.1322 57.7419 77.8421" stroke="#0C2B42" stroke-width="2.58272" stroke-linecap="round"/>
<circle cx="49.4839" cy="28.9677" r="1.54839" stroke="#0C2B42" stroke-width="1.54963"/>
<circle cx="107.29" cy="77.4839" r="1.03226" stroke="#0C2B42" stroke-width="1.54963"/>
<path d="M49.4839 46H72.7097M49.4839 51.4194H63.4194" stroke="#ABC0DC" stroke-width="1.54963" stroke-linecap="round"/>
<path d="M45.3548 92.9677H87.1613M45.3548 87.8065H70.4387" stroke="#ABC0DC" stroke-width="1.54963" stroke-linecap="round"/>
<circle cx="26.5161" cy="69.4839" r="2.32258" stroke="#0C2B42" stroke-width="1.54963"/>
<path d="M96.4694 37.2258H101.613M92.8387 32.7731V28.4516" stroke="#6E7191" stroke-width="1.54963" stroke-linecap="round"/>
<path d="M96.1669 33.6882L99.5881 30.267" stroke="#6E7191" stroke-width="1.54963" stroke-linecap="round"/>
<ellipse cx="66.2581" cy="112.323" rx="26.0645" ry="2.32258" fill="#ABC0DC"/>
</svg>
